<svg xmlns="http://www.w3.org/2000/svg" viewBox="0 0 35.02 32.54"><defs><style>.cls-1,.cls-2,.cls-3{fill:none;stroke:#d00e46;}.cls-1,.cls-3{stroke-linecap:round;}.cls-1,.cls-2{stroke-miterlimit:10;}.cls-2{stroke-linecap:square;}.cls-3{stroke-linejoin:round;}</style></defs><g id="Layer_2" data-name="Layer 2"><g id="Layer_1-2" data-name="Layer 1"><polyline class="cls-1" points="7.56 32.04 0.5 32.04 0.5 24.52"/><polyline class="cls-1" points="27.46 32.04 34.52 32.04 34.52 24.52"/><polyline class="cls-1" points="27.46 0.5 34.52 0.5 34.52 8.02"/><polyline class="cls-1" points="7.56 0.5 0.5 0.5 0.5 8.02"/><circle class="cls-1" cx="17.51" cy="16.27" r="8.81"/><circle class="cls-2" cx="17.51" cy="2.56" r="1.36"/><line class="cls-2" x1="17.51" y1="3.91" x2="17.51" y2="7.27"/><circle class="cls-2" cx="7.83" cy="6.55" r="1.36"/><line class="cls-2" x1="8.79" y1="7.52" x2="11.16" y2="9.89"/><circle class="cls-2" cx="27.17" cy="6.53" r="1.36"/><line class="cls-2" x1="26.21" y1="7.5" x2="23.85" y2="9.88"/><circle class="cls-2" cx="27.17" cy="26.01" r="1.36"/><line class="cls-2" x1="26.21" y1="25.05" x2="23.85" y2="22.66"/><circle class="cls-2" cx="7.85" cy="26.01" r="1.36"/><line class="cls-2" x1="8.8" y1="25.05" x2="11.17" y2="22.66"/><circle class="cls-2" cx="17.62" cy="29.99" r="1.36"/><line class="cls-2" x1="17.6" y1="28.63" x2="17.58" y2="25.27"/><circle class="cls-2" cx="31.22" cy="16.1" r="1.36"/><line class="cls-2" x1="29.87" y1="16.12" x2="26.51" y2="16.16"/><circle class="cls-2" cx="17.51" cy="2.56" r="1.36"/><line class="cls-2" x1="17.51" y1="3.91" x2="17.51" y2="7.27"/><circle class="cls-2" cx="3.79" cy="16.27" r="1.36"/><line class="cls-2" x1="5.15" y1="16.27" x2="8.51" y2="16.27"/><path class="cls-3" d="M22.41,21.47l0-4V14.57A1.62,1.62,0,0,0,20.77,13H14.23a1.62,1.62,0,0,0-1.63,1.62v2.86a1.63,1.63,0,0,0,1.63,1.62H20Z"/><line class="cls-3" x1="14.58" y1="15.34" x2="20.43" y2="15.34"/></g></g></svg>