<svg xmlns="http://www.w3.org/2000/svg" viewBox="0 0 35.02 32.54"><defs><style>.cls-1{fill:none;stroke:#d00e46;stroke-linecap:round;stroke-miterlimit:10;}</style></defs><g id="Layer_2" data-name="Layer 2"><g id="Layer_1-2" data-name="Layer 1"><line class="cls-1" x1="23.05" y1="16.27" x2="30.95" y2="16.27"/><line class="cls-1" x1="4.06" y1="16.27" x2="11.97" y2="16.27"/><line class="cls-1" x1="17.51" y1="21.81" x2="17.51" y2="29.72"/><line class="cls-1" x1="17.51" y1="2.82" x2="17.51" y2="10.73"/><path class="cls-1" d="M20,16.27a2.54,2.54,0,1,1-2.53-2.53A2.54,2.54,0,0,1,20,16.27Z"/><path class="cls-1" d="M27,16.27a9.46,9.46,0,1,1-9.45-9.45A9.46,9.46,0,0,1,27,16.27Z"/><path class="cls-1" d="M34.52,16.27s-9.57,9.08-17,9.46"/><path class="cls-1" d="M.5,16.27s9.56,9.08,17,9.46"/><path class="cls-1" d="M34.52,16.27S25,7.19,17.51,6.82"/><path class="cls-1" d="M.5,16.27s9.56-9.08,17-9.45"/><polyline class="cls-1" points="7.56 32.04 0.5 32.04 0.5 24.52"/><polyline class="cls-1" points="27.46 32.04 34.52 32.04 34.52 24.52"/><polyline class="cls-1" points="27.46 0.5 34.52 0.5 34.52 8.02"/><polyline class="cls-1" points="7.56 0.5 0.5 0.5 0.5 8.02"/></g></g></svg>