<svg xmlns="http://www.w3.org/2000/svg" viewBox="0 0 35.02 32.54"><defs><style>.cls-1,.cls-2{fill:none;stroke:#d00e46;stroke-miterlimit:10;}.cls-1{stroke-linecap:round;}</style></defs><g id="Layer_2" data-name="Layer 2"><g id="Layer_1-2" data-name="Layer 1"><polyline class="cls-1" points="7.56 32.04 0.5 32.04 0.5 24.52"/><polyline class="cls-1" points="27.46 32.04 34.52 32.04 34.52 24.52"/><polyline class="cls-1" points="27.46 0.5 34.52 0.5 34.52 8.02"/><polyline class="cls-1" points="7.56 0.5 0.5 0.5 0.5 8.02"/><path class="cls-2" d="M23,20.48a.16.16,0,0,0,.09-.05c.34-.34.68-.68,1-1a.25.25,0,0,0,0-.24c-.18-.41-.36-.82-.57-1.22a.56.56,0,0,1,0-.57,15.23,15.23,0,0,0,.72-1.72.58.58,0,0,1,.43-.45c.41-.13.82-.29,1.24-.43a.28.28,0,0,0,.21-.31c0-.4,0-.79,0-1.18a.24.24,0,0,0-.2-.28c-.44-.15-.88-.33-1.32-.47a.5.5,0,0,1-.34-.36c-.23-.6-.47-1.21-.74-1.8a.54.54,0,0,1,0-.52c.22-.41.42-.83.61-1.26a.32.32,0,0,0,0-.27q-.45-.48-.93-.93a.36.36,0,0,0-.29,0c-.45.19-.89.42-1.35.61a.47.47,0,0,1-.35,0,7.19,7.19,0,0,0-2-.81.37.37,0,0,1-.28-.3c-.15-.44-.31-.88-.48-1.31a.29.29,0,0,0-.22-.17c-.44,0-.88,0-1.32,0a.33.33,0,0,0-.22.17c-.18.46-.34.93-.51,1.38a.35.35,0,0,1-.19.19,8.37,8.37,0,0,0-2,.84.47.47,0,0,1-.35,0c-.46-.2-.9-.42-1.35-.61a.31.31,0,0,0-.28,0c-.31.29-.61.58-.89.89A.38.38,0,0,0,11,8.6c.19.44.42.86.6,1.3a.54.54,0,0,1,0,.43,6.46,6.46,0,0,0-.78,1.91.3.3,0,0,1-.23.26c-.45.17-.91.32-1.37.5a.37.37,0,0,0-.21.23q0,.64,0,1.29a.32.32,0,0,0,.18.23q.62.24,1.26.45a.5.5,0,0,1,.4.4,5.3,5.3,0,0,0,.76,1.82.45.45,0,0,1,0,.5c-.21.4-.39.82-.6,1.23a.25.25,0,0,0,0,.34c.29.28.58.56.86.86a.27.27,0,0,0,.38,0c.45-.23.91-.45,1.36-.66a.26.26,0,0,1,.23,0,6.4,6.4,0,0,0,2,.84.41.41,0,0,1,.31.31c.15.44.32.88.47,1.32a.27.27,0,0,0,.27.21H18.1a.33.33,0,0,0,.35-.28c.14-.42.28-.84.45-1.26a.5.5,0,0,1,.25-.28,7.59,7.59,0,0,0,2.06-.85.31.31,0,0,1,.25,0c.45.2.89.42,1.33.64Z"/><path class="cls-2" d="M17.51,18.63a4.77,4.77,0,1,0,0-9.53,4.84,4.84,0,0,0-4.82,4.48A4.78,4.78,0,0,0,17.51,18.63Z"/><circle class="cls-1" cx="23.45" cy="23.32" r="1.37"/><path class="cls-1" d="M21.88,23.32A2.84,2.84,0,0,0,19,26.16V32"/><circle class="cls-1" cx="26.34" cy="27.38" r="1.37"/><path class="cls-1" d="M24.77,27.38a2.85,2.85,0,0,0-2.84,2.85V32"/><circle class="cls-1" cx="11.62" cy="23.32" r="1.37"/><path class="cls-1" d="M13.19,23.32A2.85,2.85,0,0,1,16,26.16V32"/><circle class="cls-1" cx="8.73" cy="27.38" r="1.37"/><path class="cls-1" d="M10.3,27.38a2.85,2.85,0,0,1,2.84,2.85V32"/><path class="cls-1" d="M6.74,24a13.47,13.47,0,1,1,21.66-.09"/><line class="cls-1" x1="3.44" y1="9.59" x2="4.57" y2="12.29"/><line class="cls-1" x1="7.15" y1="10.91" x2="4.57" y2="12.29"/><line class="cls-1" x1="28.48" y1="12.48" x2="29.58" y2="9.77"/><line class="cls-1" x1="32.18" y1="11.12" x2="29.59" y2="9.77"/></g></g></svg>