<svg xmlns="http://www.w3.org/2000/svg" viewBox="0 0 35.02 32.54"><defs><style>.cls-1{fill:none;stroke:#d00e46;stroke-linecap:round;stroke-miterlimit:10;}</style></defs><g id="Layer_2" data-name="Layer 2"><g id="Layer_1-2" data-name="Layer 1"><polyline class="cls-1" points="7.23 26.05 11.63 26.05 23.84 26.05"/><polyline class="cls-1" points="8.7 24.18 11.5 24.18 19.25 24.18"/><path class="cls-1" d="M24.34,8.71c.21-.38,1.87-3.49,2.08-3.89L21.76,2.28,14,16.53l4.68,2.56c.16-.32,3-5.68,3.21-6"/><path class="cls-1" d="M25.65,4.4l1-1.8L23.79,1.07l-.94,1.72"/><path class="cls-1" d="M26.36,11.32a2.53,2.53,0,1,0-5.05,0,2.53,2.53,0,1,0,5.05,0Z"/><path class="cls-1" d="M29.11,17.64a8.94,8.94,0,0,0-.62-2.74,13.79,13.79,0,0,0-.91-1.9c-.36-.61-.81-1.16-1.19-1.68l0,0a2.49,2.49,0,0,1-.85,1.92,10.27,10.27,0,0,1,.9,1.5,9.24,9.24,0,0,1,.88,3.34A9.59,9.59,0,0,1,27,21.17a9.35,9.35,0,0,1-9.58,7.12,7.76,7.76,0,0,1-2.4-.42A16,16,0,0,1,13,27a6.42,6.42,0,0,1-1.21-.85H9.16c.3.3.83.84,1.15,1.14A9.89,9.89,0,0,0,12.75,29a.64.64,0,0,1,.31.88l-.63,1.5c-.1.22-.18.46-.28.71H22.7c-.22-.59-.42-1.15-.65-1.71s-.13-.85.43-1.13,1.17-.62,1.73-1a10.3,10.3,0,0,0,3.1-3.1,11.45,11.45,0,0,0,1.35-2.82A11.76,11.76,0,0,0,29.19,19,12.19,12.19,0,0,0,29.11,17.64Z"/><path class="cls-1" d="M16.58,20.8l1.19-2.18L14.9,17l-1.17,2.22a1.61,1.61,0,0,0,.65,2.19h0A1.62,1.62,0,0,0,16.58,20.8Z"/><path class="cls-1" d="M24.82,11.33a1,1,0,1,0-2,0,1,1,0,0,0,1,1A1,1,0,0,0,24.82,11.33Z"/><polyline class="cls-1" points="7.56 32.04 0.5 32.04 0.5 24.52"/><polyline class="cls-1" points="27.46 32.04 34.52 32.04 34.52 24.52"/><polyline class="cls-1" points="27.46 0.5 34.52 0.5 34.52 8.02"/><polyline class="cls-1" points="7.56 0.5 0.5 0.5 0.5 8.02"/></g></g></svg>