<svg xmlns="http://www.w3.org/2000/svg" viewBox="0 0 35.02 32.54"><defs><style>.cls-1,.cls-2{fill:none;stroke:#d00e46;stroke-linecap:round;}.cls-1{stroke-linejoin:round;}.cls-2{stroke-miterlimit:10;}</style></defs><g id="Layer_2" data-name="Layer 2"><g id="Layer_1-2" data-name="Layer 1"><rect class="cls-1" x="15.65" y="16.19" width="15.18" height="13.01"/><rect class="cls-1" x="18.22" y="21.89" width="10.04" height="4.27" rx="2.12"/><rect class="cls-1" x="4.53" y="20.54" width="11.11" height="8.67" transform="translate(20.18 49.74) rotate(180)"/><polygon class="cls-1" points="2.4 16.44 15.65 11.29 15.65 20.54 2.4 20.54 2.4 16.44"/><rect class="cls-1" x="11.03" y="22.7" width="2.27" height="4.34" transform="translate(24.32 49.74) rotate(180)"/><rect class="cls-1" x="6.88" y="22.7" width="2.27" height="4.34" transform="translate(16.03 49.74) rotate(180)"/><rect class="cls-1" x="24.18" y="18.33" width="2.27" height="2.17" transform="translate(50.62 38.83) rotate(180)"/><rect class="cls-1" x="20.03" y="18.33" width="2.27" height="2.17" transform="translate(42.33 38.83) rotate(180)"/><path class="cls-1" d="M20,23.82H22.3a0,0,0,0,1,0,0v4.26a1.12,1.12,0,0,1-1.12,1.12h0A1.12,1.12,0,0,1,20,28.08V23.82A0,0,0,0,1,20,23.82Z" transform="translate(42.33 53.02) rotate(180)"/><path class="cls-1" d="M24.18,23.82h2.27a0,0,0,0,1,0,0v4.26a1.12,1.12,0,0,1-1.12,1.12h0a1.12,1.12,0,0,1-1.12-1.12V23.82a0,0,0,0,1,0,0Z" transform="translate(50.62 53.02) rotate(180)"/><path class="cls-1" d="M21.83,16.16V2A1.45,1.45,0,0,0,20.38.5H10.12"/><path class="cls-1" d="M18.48,16.19V4.8a1,1,0,0,0-1.06-1H11.16"/><path class="cls-1" d="M28.54,16.19v-11A1.43,1.43,0,0,0,27.1,3.77H23.22"/><path class="cls-1" d="M25.19,16.16V8.07a1.05,1.05,0,0,0-1.06-1h-.91"/><polyline class="cls-2" points="7.56 32.04 0.5 32.04 0.5 24.52"/><polyline class="cls-2" points="27.46 32.04 34.52 32.04 34.52 24.52"/><polyline class="cls-2" points="27.46 0.5 34.52 0.5 34.52 8.02"/><polyline class="cls-2" points="7.56 0.5 0.5 0.5 0.5 8.02"/></g></g></svg>