<?xml version="1.0" encoding="UTF-8"?><svg xmlns="http://www.w3.org/2000/svg" viewBox="0 0 25.36 25.39"><defs><style>.d{fill:#c4c3c8;}</style></defs><g id="a"/><g id="b"><g id="c"><path class="d" d="M15.06,17.34l.46-.28s.09-.04,.13-.04c.07,0,.13,.03,.18,.08l.52,.55h0c.15,.16,.45,.47,.45,.47l6.95,6.97c.3,.3,.59,.37,.97,.25,.37-.11,.55-.34,.63-.75,0-.02,0-.04,.01-.06v-.2c-.02-.06-.03-.1-.04-.12l-.03-.06c-.07-.14-.15-.28-.21-.34-1.8-1.81-6.5-6.52-7.57-7.59-.36-.36-.41-.85-.11-1.27,.94-1.37,1.49-2.9,1.64-4.54,.17-1.87-.18-3.63-1.03-5.24-1.2-2.28-3.05-3.86-5.51-4.69-.72-.24-1.5-.39-2.31-.44-.07,0-.14-.02-.21-.03l-1.17,.03c-.17,.02-.34,.04-.51,.06C5.95,.41,3.95,1.47,2.37,3.26,1.19,4.58,.45,6.11,.16,7.8c-.53,3.12,.26,5.88,2.36,8.2,1.43,1.59,3.23,2.58,5.36,2.94,2.55,.44,4.94-.09,7.12-1.56,.01,0,.03-.02,.07-.04Zm-5.54-.15c-2.11,0-4.05-.82-5.51-2.29-1.44-1.46-2.24-3.39-2.23-5.44,.02-4.23,3.46-7.67,7.67-7.67,2.08,0,4.02,.81,5.47,2.26,1.46,1.46,2.26,3.39,2.25,5.45,0,2.04-.81,3.98-2.28,5.44-1.46,1.45-3.37,2.25-5.38,2.25Z"/></g></g></svg>