<svg xmlns="http://www.w3.org/2000/svg" viewBox="0 0 62.36 62.36"><defs><style>.cls-1{fill:#393649;}.cls-2{fill:#fff;}</style></defs><g id="Layer_2" data-name="Layer 2"><g id="Layer_1-2" data-name="Layer 1"><path class="cls-1" d="M10.5,0A10.44,10.44,0,0,0,0,10.39V52A10.44,10.44,0,0,0,10.5,62.36H51.86A10.44,10.44,0,0,0,62.36,52V10.39A10.44,10.44,0,0,0,51.86,0Z"/><path class="cls-2" d="M39.63,19.23a10.28,10.28,0,0,0-8.11-3.86,9.83,9.83,0,0,0-9.07,5,9,9,0,0,0-1.27,4.72,1.5,1.5,0,0,0,1.45,1.54,1.51,1.51,0,0,0,1.55-1.43,1.48,1.48,0,0,0,0-.21V24.9a6.57,6.57,0,0,1,3.22-5.45,7.74,7.74,0,0,1,9,.76,5,5,0,0,1,1.91,5.21,5.92,5.92,0,0,1-2.17,3.85,23.2,23.2,0,0,1-2,1.3,8.22,8.22,0,0,0-3.53,3.55,10,10,0,0,0-.8,4.4v.32c0,.25,0,.5.05.74a1.51,1.51,0,0,0,1.5,1.54h.08a1.54,1.54,0,0,0,1.42-1.69v-.37c0-.53,0-1.07,0-1.6A4.43,4.43,0,0,1,35,33.59l1-.65.58-.37a9.85,9.85,0,0,0,4.46-5.79A7.83,7.83,0,0,0,39.63,19.23Z"/><path class="cls-2" d="M33.35,44.52a2,2,0,0,1-2,2,2,2,0,1,1,0-4.08,2,2,0,0,1,2,2.08"/></g></g></svg>